<?xml version="1.0" encoding="UTF-8" standalone="no"?>
<!-- Created with Inkscape (http://www.inkscape.org/) -->

<svg
   version="1.1"
   id="svg111"
   xml:space="preserve"
   width="32"
   height="32"
   viewBox="0 0 32 32"
   xmlns="http://www.w3.org/2000/svg"
   xmlns:svg="http://www.w3.org/2000/svg"><defs
     id="defs115"><clipPath
       clipPathUnits="userSpaceOnUse"
       id="clipPath125"><path
         d="M 0,24 H 24 V 0 H 0 Z"
         id="path123" /></clipPath></defs><g
     id="g117"
     transform="matrix(1.3333333,0,0,-1.3333333,0,32)"><g
       id="g119"><g
         id="g121"
         clip-path="url(#clipPath125)"><g
           id="g127"
           transform="translate(1,21)"><path
             d="m 0,0 1.586,-1.414 c 0.781,-0.781 2.047,-0.781 2.828,0 L 8,2"
             style="fill:none;stroke:#000000;stroke-width:2;stroke-linecap:round;stroke-linejoin:round;stroke-miterlimit:10;stroke-dasharray:none;stroke-opacity:1"
             id="path129" /></g><g
           id="g131"
           transform="translate(13,20)"><path
             d="M 0,0 H 10"
             style="fill:none;stroke:#000000;stroke-width:2;stroke-linecap:round;stroke-linejoin:round;stroke-miterlimit:10;stroke-dasharray:none;stroke-opacity:1"
             id="path133" /></g><g
           id="g135"
           transform="translate(1,13.1714)"><path
             d="m 0,0 1.586,-1.585 c 0.781,-0.782 2.047,-0.782 2.828,0 L 8,1.829"
             style="fill:none;stroke:#000000;stroke-width:2;stroke-linecap:round;stroke-linejoin:round;stroke-miterlimit:10;stroke-dasharray:none;stroke-opacity:1"
             id="path137" /></g><g
           id="g139"
           transform="translate(13,12)"><path
             d="M 0,0 H 10"
             style="fill:none;stroke:#000000;stroke-width:2;stroke-linecap:round;stroke-linejoin:round;stroke-miterlimit:10;stroke-dasharray:none;stroke-opacity:1"
             id="path141" /></g><g
           id="g143"
           transform="translate(1,5)"><path
             d="m 0,0 1.586,-1.414 c 0.781,-0.781 2.047,-0.781 2.828,0 L 8,2"
             style="fill:none;stroke:#000000;stroke-width:2;stroke-linecap:round;stroke-linejoin:round;stroke-miterlimit:10;stroke-dasharray:none;stroke-opacity:1"
             id="path145" /></g><g
           id="g147"
           transform="translate(13,4)"><path
             d="M 0,0 H 10"
             style="fill:none;stroke:#000000;stroke-width:2;stroke-linecap:round;stroke-linejoin:round;stroke-miterlimit:10;stroke-dasharray:none;stroke-opacity:1"
             id="path149" /></g></g></g></g></svg>
